<svg width="21" height="21" viewBox="0 0 21 21" fill="none" xmlns="http://www.w3.org/2000/svg">
<path d="M6.24858 17.8224C7.07793 17.8224 7.7574 18.5164 7.7574 19.3736C7.7574 20.2206 7.07793 20.9146 6.24858 20.9146C5.40923 20.9146 4.72976 20.2206 4.72976 19.3736C4.72976 18.5164 5.40923 17.8224 6.24858 17.8224ZM17.4898 17.8224C18.3192 17.8224 18.9986 18.5164 18.9986 19.3736C18.9986 20.2206 18.3192 20.9146 17.4898 20.9146C16.6505 20.9146 15.971 20.2206 15.971 19.3736C15.971 18.5164 16.6505 17.8224 17.4898 17.8224ZM1.60049 0.91467L1.70232 0.923289L4.08546 1.28965C4.4252 1.3519 4.67501 1.63662 4.70498 1.9836L4.89483 4.26954C4.92481 4.59712 5.18461 4.84204 5.50436 4.84204H18.9988C19.6084 4.84204 20.0081 5.05635 20.4077 5.52578C20.8074 5.99522 20.8774 6.66875 20.7874 7.28004L19.8382 13.9746C19.6583 15.2614 18.5792 16.2095 17.3102 16.2095H6.40865C5.07969 16.2095 3.98055 15.1696 3.87063 13.8225L2.95135 2.69795L1.44252 2.43262C1.04284 2.36119 0.763054 1.96319 0.832999 1.55498C0.902945 1.1376 1.29264 0.861038 1.70232 0.923289L1.60049 0.91467ZM15.7114 8.61691H12.9436C12.5239 8.61691 12.1941 8.95368 12.1941 9.38229C12.1941 9.8007 12.5239 10.1477 12.9436 10.1477H15.7114C16.1311 10.1477 16.4608 9.8007 16.4608 9.38229C16.4608 8.95368 16.1311 8.61691 15.7114 8.61691Z" fill="#FF4C3B"/>
</svg>
