<svg width="26" height="26" viewBox="0 0 26 26" fill="none" xmlns="http://www.w3.org/2000/svg">
<g filter="url(#filter0_d_242_7)">
<path d="M15.4633 2.79537C15.9496 2.98896 16.2935 3.3379 16.6018 3.84945L16.7034 4.026L17.0803 4.74863L17.0927 4.76881L17.1039 4.78637L17.1359 4.83013C17.3076 5.01721 17.595 5.13023 17.7846 5.13023C19.522 5.13023 20.9409 6.49462 21.0279 8.20985L21.0321 8.3769V13.2061C21.0321 15.4327 19.2737 17.2498 17.0701 17.3439L16.8905 17.3477H8.50715C6.27993 17.3477 4.46337 15.5895 4.3693 13.3857L4.36548 13.2061V8.3769C4.36548 6.58406 5.81963 5.13023 7.61298 5.13023C7.80196 5.13023 8.08971 5.01705 8.26168 4.83013L8.2676 4.82314L8.27502 4.81343L8.31787 4.74769L8.69366 4.02623C9.02862 3.41746 9.39301 3.01051 9.93371 2.79529C10.9246 2.40131 14.4732 2.40131 15.4633 2.79537ZM10.3958 3.95676C10.2113 4.03019 10.0442 4.20016 9.86599 4.49482L9.78883 4.62882L9.46811 5.2489L9.38917 5.39176C9.32328 5.50137 9.25736 5.59389 9.1821 5.67589C8.79842 6.09294 8.24753 6.33382 7.75783 6.37417L7.61298 6.38023L7.47623 6.38484C6.48212 6.45206 5.68732 7.24667 5.62009 8.24023L5.61548 8.3769V13.2061C5.61548 14.7496 6.82526 16.0111 8.34849 16.0935L8.50715 16.0977H16.8905C18.4338 16.0977 19.6955 14.8875 19.7779 13.3647L19.7821 13.2061V8.3769C19.7821 7.32041 18.9607 6.45512 17.9214 6.38484L17.7846 6.38023L17.6396 6.37417C17.1491 6.33381 16.5982 6.09287 16.215 5.67534C16.1407 5.59442 16.0752 5.50256 16.0097 5.39388L15.9939 5.36693L15.9752 5.33347L15.8784 5.15202L15.6085 4.62905C15.4263 4.29813 15.2593 4.09588 15.0791 3.99424L15.001 3.95676L14.9016 3.92371C14.044 3.6813 11.0608 3.69232 10.3958 3.95676ZM12.6986 7.66582C14.5071 7.66582 15.9727 9.13147 15.9727 10.94C15.9727 12.7485 14.5071 14.2142 12.6986 14.2142C10.8901 14.2142 9.4244 12.7485 9.4244 10.94C9.4244 9.13147 10.8901 7.66582 12.6986 7.66582ZM12.6986 8.91582C11.5804 8.91582 10.6744 9.82183 10.6744 10.94C10.6744 12.0581 11.5804 12.9642 12.6986 12.9642C13.8167 12.9642 14.7227 12.0581 14.7227 10.94C14.7227 9.82183 13.8167 8.91582 12.6986 8.91582ZM17.2857 7.08332C17.746 7.08332 18.1191 7.45641 18.1191 7.91665C18.1191 8.34401 17.7974 8.69624 17.3829 8.74438L17.2857 8.74998C16.818 8.74998 16.4449 8.37689 16.4449 7.91665C16.4449 7.48929 16.7666 7.13706 17.181 7.08892L17.2857 7.08332Z" fill="#777777"/>
</g>
<defs>
<filter id="filter0_d_242_7" x="-1.30127" y="0" width="28" height="28" filterUnits="userSpaceOnUse" color-interpolation-filters="sRGB">
<feFlood flood-opacity="0" result="BackgroundImageFix"/>
<feColorMatrix in="SourceAlpha" type="matrix" values="0 0 0 0 0 0 0 0 0 0 0 0 0 0 0 0 0 0 127 0" result="hardAlpha"/>
<feOffset dy="4"/>
<feGaussianBlur stdDeviation="2"/>
<feComposite in2="hardAlpha" operator="out"/>
<feColorMatrix type="matrix" values="0 0 0 0 0 0 0 0 0 0 0 0 0 0 0 0 0 0 0.25 0"/>
<feBlend mode="normal" in2="BackgroundImageFix" result="effect1_dropShadow_242_7"/>
<feBlend mode="normal" in="SourceGraphic" in2="effect1_dropShadow_242_7" result="shape"/>
</filter>
</defs>
</svg>
