<svg width="17" height="17" viewBox="0 0 17 17" fill="none" xmlns="http://www.w3.org/2000/svg">
<path fill-rule="evenodd" clip-rule="evenodd" d="M8.69706 1.67633C12.3731 1.67633 15.3637 4.667 15.3637 8.343C15.3637 12.019 12.3731 15.0097 8.69706 15.0097C5.02106 15.0097 2.0304 12.019 2.0304 8.343C2.0304 4.667 5.02106 1.67633 8.69706 1.67633ZM8.69706 2.67633C5.5724 2.67633 3.0304 5.21833 3.0304 8.343C3.0304 11.4677 5.5724 14.0097 8.69706 14.0097C11.8217 14.0097 14.3637 11.4677 14.3637 8.343C14.3637 5.21833 11.8217 2.67633 8.69706 2.67633ZM8.4712 5.07326C8.74786 5.07326 8.9712 5.29726 8.9712 5.57326V8.52126L11.2412 9.8746C11.4779 10.0166 11.5559 10.3233 11.4145 10.5606C11.3205 10.7173 11.1545 10.8046 10.9845 10.8046C10.8972 10.8046 10.8092 10.7819 10.7285 10.7346L8.2152 9.23526C8.06453 9.1446 7.9712 8.98126 7.9712 8.80526V5.57326C7.9712 5.29726 8.1952 5.07326 8.4712 5.07326Z" fill="#777777"/>
</svg>
