<svg width="12" height="13" viewBox="0 0 12 13" fill="none" xmlns="http://www.w3.org/2000/svg">
<path fill-rule="evenodd" clip-rule="evenodd" d="M9.6923 5.0493C9.8988 5.0663 10.0528 5.2468 10.0363 5.4533C10.0333 5.4873 9.7623 8.8428 9.6063 10.2503C9.5093 11.1238 8.9323 11.6553 8.0613 11.6713C7.3948 11.6828 6.7518 11.6893 6.1233 11.6893C5.4458 11.6893 4.7853 11.6818 4.1318 11.6683C3.2958 11.6518 2.7173 11.1098 2.6228 10.2538C2.4653 8.8338 2.1958 5.4868 2.1933 5.4533C2.1763 5.2468 2.3303 5.0658 2.5368 5.0493C2.7403 5.0438 2.9243 5.1868 2.9408 5.3928C2.9424 5.41451 3.05257 6.78132 3.17263 8.13366L3.19675 8.40353C3.25722 9.07572 3.31851 9.72162 3.3683 10.1713C3.4218 10.6578 3.6843 10.9088 4.1473 10.9183C5.3973 10.9448 6.6728 10.9463 8.0478 10.9213C8.5398 10.9118 8.8058 10.6658 8.8608 10.1678C9.0158 8.7708 9.2858 5.4268 9.2888 5.3928C9.3053 5.1868 9.4878 5.0428 9.6923 5.0493ZM7.1727 1.68945C7.6317 1.68945 8.0352 1.99895 8.1537 2.44245L8.2807 3.07295C8.32174 3.27964 8.50312 3.43058 8.71314 3.4339L10.354 3.43395C10.561 3.43395 10.729 3.60195 10.729 3.80895C10.729 4.01595 10.561 4.18395 10.354 4.18395L8.72779 4.18388C8.72527 4.18393 8.72274 4.18395 8.7202 4.18395L8.708 4.18345L3.52081 4.18389C3.51678 4.18393 3.51274 4.18395 3.5087 4.18395L3.501 4.18345L1.875 4.18395C1.668 4.18395 1.5 4.01595 1.5 3.80895C1.5 3.60195 1.668 3.43395 1.875 3.43395L3.5155 3.43345L3.56601 3.43026C3.75415 3.40585 3.91052 3.26295 3.9487 3.07295L4.0702 2.46495C4.1937 1.99895 4.5972 1.68945 5.0562 1.68945H7.1727ZM7.1727 2.43945H5.0562C4.9362 2.43945 4.8307 2.51995 4.8002 2.63545L4.6837 3.22045C4.66889 3.29455 4.64733 3.36596 4.61974 3.43409H7.60931C7.58168 3.36596 7.56007 3.29455 7.5452 3.22045L7.4237 2.61245C7.3982 2.51995 7.2927 2.43945 7.1727 2.43945Z" fill="#2B2B2B"/>
</svg>
