<svg width="22" height="22" viewBox="0 0 22 22" fill="none" xmlns="http://www.w3.org/2000/svg">
<path fill-rule="evenodd" clip-rule="evenodd" d="M12.9469 2.63593L13.617 3.30602C13.8764 3.5636 14.2229 3.7066 14.5914 3.7066H15.5337C17.0563 3.7066 18.2947 4.94502 18.2947 6.4676V7.40902C18.2947 7.7766 18.4377 8.12402 18.6972 8.38527L19.3553 9.04435C19.8769 9.56227 20.1666 10.2544 20.1693 10.9923C20.1721 11.7302 19.887 12.4241 19.3672 12.9475L18.6953 13.6176C18.4377 13.877 18.2947 14.2226 18.2947 14.5911V15.5344C18.2947 17.056 17.0563 18.2944 15.5347 18.2944H14.5896C14.2266 18.2944 13.8718 18.4411 13.6142 18.6969L12.9561 19.355C12.418 19.8968 11.7085 20.1681 10.999 20.1681C10.2959 20.1681 9.59282 19.9023 9.05474 19.3688C9.04741 19.3614 9.04007 19.3541 9.03274 19.3459L8.38191 18.6959C8.12249 18.4384 7.77599 18.2954 7.40749 18.2944H6.46699C4.94441 18.2944 3.70691 17.056 3.70691 15.5344V14.5893C3.70691 14.2208 3.56299 13.8752 3.30449 13.6149L2.64541 12.9567C1.57474 11.8915 1.56191 10.1572 2.61332 9.07552L2.63807 9.05077L3.30541 8.3816C3.56299 8.12218 3.70691 7.77477 3.70691 7.40718V6.4676C3.70691 4.94593 4.94441 3.70752 6.46607 3.7066H7.41024C7.77782 3.7066 8.12432 3.56268 8.38741 3.30327L9.04282 2.64602C10.1144 1.5671 11.8662 1.5616 12.9469 2.63593ZM10.0172 3.61677L9.35816 4.27768C8.83199 4.79743 8.14174 5.0816 7.41024 5.0816H6.46699C5.70341 5.08252 5.08191 5.70402 5.08191 6.4676V7.40718C5.08191 8.14143 4.79682 8.83168 4.27982 9.35235L3.62899 10.0041C3.62257 10.0114 3.61616 10.0169 3.60974 10.0234C3.07166 10.5651 3.07441 11.4442 3.61616 11.9823L4.27799 12.6441C4.79682 13.1648 5.08191 13.855 5.08191 14.5893V15.5344C5.08191 16.2979 5.70249 16.9194 6.46699 16.9194H7.40841C8.14358 16.9204 8.83383 17.2054 9.35358 17.7234L10.0145 18.3824L10.0328 18.4026C10.5737 18.9306 11.4445 18.9242 11.9817 18.3843L12.6435 17.7243C13.1568 17.2119 13.8663 16.9194 14.5896 16.9194H15.5337C16.2982 16.9194 16.9197 16.2979 16.9197 15.5344V14.5911C16.9197 13.8569 17.2039 13.1666 17.7227 12.6469L18.3827 11.9859C18.6513 11.7164 18.7952 11.3672 18.7943 10.9969C18.7934 10.6274 18.6477 10.28 18.3846 10.0179L17.7237 9.35602C17.2039 8.8326 16.9197 8.14327 16.9197 7.40902V6.4676C16.9197 5.7031 16.2982 5.0816 15.5337 5.0816H14.5914C13.8572 5.0816 13.1669 4.79652 12.6472 4.28043L11.9853 3.61768C11.4344 3.07227 10.5553 3.07502 10.0172 3.61677ZM13.2949 12.3743C13.8018 12.3743 14.2115 12.7841 14.2115 13.291C14.2115 13.7979 13.8018 14.2077 13.2949 14.2077C12.788 14.2077 12.3736 13.7979 12.3736 13.291C12.3736 12.7841 12.7797 12.3743 13.2866 12.3743H13.2949ZM13.8429 8.15885C14.1114 8.42743 14.1114 8.86285 13.8429 9.13143L9.13027 13.8431C8.99644 13.9778 8.82044 14.0448 8.64444 14.0448C8.46844 14.0448 8.29244 13.9778 8.15861 13.8431C7.89002 13.5745 7.89002 13.14 8.15861 12.8714L12.8703 8.15885C13.1389 7.89027 13.5743 7.89027 13.8429 8.15885ZM8.71154 7.79099C9.21846 7.79099 9.62821 8.20074 9.62821 8.70766C9.62821 9.21458 9.21846 9.62433 8.71154 9.62433C8.20462 9.62433 7.79029 9.21458 7.79029 8.70766C7.79029 8.20074 8.19637 7.79099 8.70329 7.79099H8.71154Z" fill="#222222"/>
</svg>
