<svg width="15" height="15" viewBox="0 0 15 15" fill="none" xmlns="http://www.w3.org/2000/svg">
<path fill-rule="evenodd" clip-rule="evenodd" d="M7.10528 1.25932C7.36125 1.25932 7.56899 1.46706 7.56899 1.72303C7.56899 1.979 7.36125 2.18674 7.10528 2.18674H4.79353C3.1959 2.18674 2.16399 3.2811 2.16399 4.97456V10.1149C2.16399 11.8084 3.1959 12.9028 4.79353 12.9028H10.2492C11.8469 12.9028 12.8794 11.8084 12.8794 10.1149V7.62451C12.8794 7.36854 13.0871 7.1608 13.3431 7.1608C13.5991 7.1608 13.8068 7.36854 13.8068 7.62451V10.1149C13.8068 12.337 12.3767 13.8302 10.2492 13.8302H4.79353C2.66603 13.8302 1.23657 12.337 1.23657 10.1149V4.97456C1.23657 2.75247 2.66603 1.25932 4.79353 1.25932H7.10528ZM12.4903 1.80254L13.2427 2.55499C13.6093 2.92101 13.8109 3.4076 13.8103 3.92571C13.8103 4.44383 13.6087 4.9298 13.2427 5.2952L8.60004 9.93787C8.25936 10.2785 7.80555 10.4665 7.32329 10.4665H5.00721C4.88232 10.4665 4.76237 10.4158 4.6752 10.3261C4.58802 10.2371 4.54041 10.1165 4.5435 9.99104L4.60162 7.65456C4.61337 7.18961 4.80071 6.75249 5.12963 6.42295H5.13025L9.75065 1.80254C10.5062 1.04824 11.7347 1.04824 12.4903 1.80254ZM9.37004 3.49416L5.78563 7.07894C5.62549 7.23907 5.53461 7.45176 5.52904 7.67743L5.48267 9.53907H7.32329C7.55823 9.53907 7.77834 9.44819 7.94466 9.28187L11.5507 5.67483L9.37004 3.49416ZM10.406 2.45854L10.0254 2.83816L12.2061 5.01945L12.5873 4.63921C12.7778 4.44878 12.8829 4.19528 12.8829 3.92571C12.8829 3.65553 12.7778 3.40141 12.5873 3.21098L11.8349 2.45854C11.441 2.06593 10.8005 2.06593 10.406 2.45854Z" fill="#FF4C3B"/>
</svg>
