<svg width="26" height="26" viewBox="0 0 26 26" fill="none" xmlns="http://www.w3.org/2000/svg">
<path fill-rule="evenodd" clip-rule="evenodd" d="M18.8369 14.8503C20.6959 14.8503 22.2082 16.3551 22.2082 18.2043C22.2082 20.0536 20.6959 21.5583 18.8369 21.5583C16.9768 21.5583 15.4634 20.0536 15.4634 18.2043C15.4634 16.3551 16.9768 14.8503 18.8369 14.8503ZM18.8369 16.4753C17.8727 16.4753 17.0884 17.251 17.0884 18.2043C17.0884 19.1587 17.8727 19.9333 18.8369 19.9333C19.8 19.9333 20.5832 19.1587 20.5832 18.2043C20.5832 17.251 19.8 16.4753 18.8369 16.4753ZM10.9203 17.4338C11.3688 17.4338 11.7328 17.7978 11.7328 18.2463C11.7328 18.6948 11.3688 19.0588 10.9203 19.0588H4.09424C3.64574 19.0588 3.28174 18.6948 3.28174 18.2463C3.28174 17.7978 3.64574 17.4338 4.09424 17.4338H10.9203ZM6.62242 4.33331C8.4825 4.33331 9.99483 5.83915 9.99483 7.6884C9.99483 9.53765 8.4825 11.0413 6.62242 11.0413C4.76342 11.0413 3.25 9.53765 3.25 7.6884C3.25 5.83915 4.76342 4.33331 6.62242 4.33331ZM6.62242 5.95831C5.65933 5.95831 4.875 6.73398 4.875 7.6884C4.875 8.64173 5.65933 9.41631 6.62242 9.41631C7.58658 9.41631 8.36983 8.64173 8.36983 7.6884C8.36983 6.73398 7.58658 5.95831 6.62242 5.95831ZM20.7904 6.93375C21.2389 6.93375 21.6029 7.29775 21.6029 7.74625C21.6029 8.19475 21.2389 8.55875 20.7904 8.55875H13.9654C13.5169 8.55875 13.1529 8.19475 13.1529 7.74625C13.1529 7.29775 13.5169 6.93375 13.9654 6.93375H20.7904Z" fill="white"/>
</svg>
