<svg width="20" height="20" viewBox="0 0 20 20" fill="none" xmlns="http://www.w3.org/2000/svg">
<path d="M6.27995 0.000162802C6.90994 0.0203305 7.51994 0.136118 8.11093 0.347694H8.16993C8.20993 0.367693 8.23993 0.389798 8.25993 0.409798C8.48093 0.484533 8.68993 0.568742 8.88992 0.68453L9.26992 0.863474C9.41992 0.947684 9.59992 1.10452 9.69992 1.16873C9.79991 1.23084 9.90991 1.29505 9.99991 1.36768C11.1109 0.474007 12.4599 -0.0101953 13.8499 0.000162802C14.4809 0.000162802 15.1109 0.0940135 15.7099 0.305589C19.4008 1.56873 20.7308 5.83181 19.6198 9.55807C18.9898 11.4622 17.9598 13.2001 16.6108 14.6201C14.6799 16.5885 12.5609 18.3358 10.2799 19.8411L10.0299 20L9.76991 19.8305C7.48094 18.3358 5.34996 16.5885 3.40098 14.6096C2.06099 13.1896 1.03001 11.4622 0.390012 9.55807C-0.739976 5.83181 0.590011 1.56873 4.32097 0.283484C4.61097 0.178223 4.90997 0.10454 5.20996 0.0634877H5.32996C5.61096 0.0203305 5.88995 0.000162802 6.16995 0.000162802H6.27995ZM15.1899 3.32659C14.7799 3.17817 14.3299 3.4108 14.1799 3.8529C14.0399 4.295 14.2599 4.7792 14.6799 4.93604C15.3209 5.18867 15.7499 5.85286 15.7499 6.58864V6.62127C15.7309 6.86232 15.7999 7.09495 15.9398 7.27389C16.0798 7.45284 16.2898 7.55705 16.5098 7.57915C16.9198 7.56757 17.2698 7.22126 17.2998 6.77811V6.65285C17.3298 5.17814 16.4808 3.84237 15.1899 3.32659Z" fill="#FF4C3B"/>
</svg>
