<svg width="14" height="17" viewBox="0 0 14 17" fill="none" xmlns="http://www.w3.org/2000/svg">
<path fill-rule="evenodd" clip-rule="evenodd" d="M7.03809 0.616699C10.8289 0.616699 13.9131 3.7242 13.9131 7.5442C13.9131 12.24 8.53309 16.8667 7.03809 16.8667C5.54309 16.8667 0.163086 12.24 0.163086 7.5442C0.163086 3.7242 3.24725 0.616699 7.03809 0.616699ZM7.03809 1.8667C3.93642 1.8667 1.41309 4.4142 1.41309 7.5442C1.41309 11.5267 6.09975 15.4067 7.03809 15.6134C7.97642 15.4059 12.6631 11.5259 12.6631 7.5442C12.6631 4.4142 10.1398 1.8667 7.03809 1.8667ZM7.03892 4.78337C8.53225 4.78337 9.74725 5.99837 9.74725 7.49253C9.74725 8.98587 8.53225 10.2 7.03892 10.2C5.54559 10.2 4.33059 8.98587 4.33059 7.49253C4.33059 5.99837 5.54559 4.78337 7.03892 4.78337ZM7.03892 6.03337C6.23475 6.03337 5.58059 6.68753 5.58059 7.49253C5.58059 8.2967 6.23475 8.95003 7.03892 8.95003C7.84309 8.95003 8.49725 8.2967 8.49725 7.49253C8.49725 6.68753 7.84309 6.03337 7.03892 6.03337Z" fill="#222222"/>
</svg>
