<svg width="21" height="20" viewBox="0 0 21 20" fill="none" xmlns="http://www.w3.org/2000/svg">
<path fill-rule="evenodd" clip-rule="evenodd" d="M9.0293 16.755C9.46097 17.2358 10.0151 17.5 10.5901 17.5H10.591C11.1685 17.5 11.7251 17.2358 12.1576 16.7541C12.3893 16.4983 12.7843 16.4775 13.0401 16.7083C13.2968 16.9391 13.3176 17.335 13.0868 17.5908C12.4135 18.3383 11.5276 18.75 10.591 18.75H10.5893C9.65514 18.7491 8.77097 18.3375 8.10014 17.59C7.8693 17.3341 7.89014 16.9383 8.1468 16.7083C8.40347 16.4766 8.79847 16.4975 9.0293 16.755ZM10.6316 0.833313C14.3358 0.833313 16.8241 3.71831 16.8241 6.41248C16.8241 7.79831 17.1766 8.38581 17.5508 9.00915C17.9208 9.62415 18.34 10.3225 18.34 11.6425C18.0491 15.015 14.5283 15.29 10.6316 15.29C6.73497 15.29 3.2133 15.015 2.92579 11.6958C2.9233 10.3225 3.34247 9.62415 3.71247 9.00915L3.84309 8.78928C4.1647 8.23653 4.43914 7.63527 4.43914 6.41248C4.43914 3.71831 6.92747 0.833313 10.6316 0.833313ZM10.6316 2.08331C7.71914 2.08331 5.68914 4.36498 5.68914 6.41248C5.68914 8.14498 5.2083 8.94581 4.7833 9.65248C4.44247 10.22 4.1733 10.6683 4.1733 11.6425C4.31247 13.2141 5.34997 14.04 10.6316 14.04C15.8841 14.04 16.9541 13.1775 17.0925 11.5883C17.09 10.6683 16.8208 10.22 16.48 9.65248C16.055 8.94581 15.5741 8.14498 15.5741 6.41248C15.5741 4.36498 13.5441 2.08331 10.6316 2.08331Z" fill="#222222"/>
</svg>
