<svg width="24" height="27" viewBox="0 0 24 27" fill="none" xmlns="http://www.w3.org/2000/svg">
<g filter="url(#filter0_d_525_15)">
<path fill-rule="evenodd" clip-rule="evenodd" d="M15.2573 1.66669C17.8773 1.66669 19.6373 3.46085 19.6373 6.13085V13.7942C19.6373 16.4875 17.9314 18.2392 15.2914 18.2559L8.88059 18.2584C6.26059 18.2584 4.49976 16.4642 4.49976 13.7942V6.13085C4.49976 3.43669 6.20559 1.68585 8.84559 1.67002L15.2564 1.66669H15.2573ZM15.2573 2.91669L8.84976 2.92002C6.90976 2.93169 5.74976 4.13169 5.74976 6.13085V13.7942C5.74976 15.8067 6.92059 17.0084 8.87976 17.0084L15.2873 17.0059C17.2273 16.9942 18.3873 15.7925 18.3873 13.7942V6.13085C18.3873 4.11835 17.2173 2.91669 15.2573 2.91669ZM15.0965 12.8948C15.4415 12.8948 15.7215 13.1748 15.7215 13.5198C15.7215 13.8648 15.4415 14.1448 15.0965 14.1448H9.07984C8.73484 14.1448 8.45484 13.8648 8.45484 13.5198C8.45484 13.1748 8.73484 12.8948 9.07984 12.8948H15.0965ZM15.0965 9.40602C15.4415 9.40602 15.7215 9.68602 15.7215 10.031C15.7215 10.376 15.4415 10.656 15.0965 10.656H9.07984C8.73484 10.656 8.45484 10.376 8.45484 10.031C8.45484 9.68602 8.73484 9.40602 9.07984 9.40602H15.0965ZM11.3754 5.92535C11.7204 5.92535 12.0004 6.20535 12.0004 6.55035C12.0004 6.89535 11.7204 7.17535 11.3754 7.17535H9.07959C8.73459 7.17535 8.45459 6.89535 8.45459 6.55035C8.45459 6.20535 8.73459 5.92535 9.07959 5.92535H11.3754Z" fill="#222222"/>
</g>
<defs>
<filter id="filter0_d_525_15" x="-2" y="0" width="28" height="28" filterUnits="userSpaceOnUse" color-interpolation-filters="sRGB">
<feFlood flood-opacity="0" result="BackgroundImageFix"/>
<feColorMatrix in="SourceAlpha" type="matrix" values="0 0 0 0 0 0 0 0 0 0 0 0 0 0 0 0 0 0 127 0" result="hardAlpha"/>
<feOffset dy="4"/>
<feGaussianBlur stdDeviation="2"/>
<feComposite in2="hardAlpha" operator="out"/>
<feColorMatrix type="matrix" values="0 0 0 0 0 0 0 0 0 0 0 0 0 0 0 0 0 0 0.25 0"/>
<feBlend mode="normal" in2="BackgroundImageFix" result="effect1_dropShadow_525_15"/>
<feBlend mode="normal" in="SourceGraphic" in2="effect1_dropShadow_525_15" result="shape"/>
</filter>
</defs>
</svg>
