<svg width="21" height="21" viewBox="0 0 21 21" fill="none" xmlns="http://www.w3.org/2000/svg">
<path fill-rule="evenodd" clip-rule="evenodd" d="M14.1047 1.7124C16.9288 1.7124 18.8263 3.69407 18.8263 6.6424V13.4491C18.8263 16.3974 16.9288 18.3791 14.103 18.3791H6.87967C4.05633 18.3791 2.15967 16.3974 2.15967 13.4491V6.6424C2.15967 3.69407 4.05633 1.7124 6.87967 1.7124H14.1047ZM14.1047 2.9624H6.87967C4.77217 2.9624 3.40967 4.40657 3.40967 6.6424V13.4491C3.40967 15.6849 4.77217 17.1291 6.87967 17.1291H14.103C16.213 17.1291 17.5763 15.6849 17.5763 13.4491V6.6424C17.5763 4.40657 16.213 2.9624 14.1047 2.9624ZM10.488 9.42074C10.833 9.42074 11.113 9.70074 11.113 10.0457V13.3791C11.113 13.7241 10.833 14.0041 10.488 14.0041C10.143 14.0041 9.863 13.7241 9.863 13.3791V10.0457C9.863 9.70074 10.143 9.42074 10.488 9.42074ZM10.4921 6.04915C10.9529 6.04915 11.3254 6.42165 11.3254 6.88249C11.3254 7.34332 10.9529 7.71582 10.4921 7.71582C10.0313 7.71582 9.65459 7.34332 9.65459 6.88249C9.65459 6.42165 10.0238 6.04915 10.4838 6.04915H10.4921Z" fill="#222222"/>
</svg>
