<svg width="20" height="20" viewBox="0 0 20 20" fill="none" xmlns="http://www.w3.org/2000/svg">
<path fill-rule="evenodd" clip-rule="evenodd" d="M10.2226 1.66711C10.8193 1.66711 11.3993 1.91211 11.8151 2.33795C12.2301 2.76628 12.4593 3.35378 12.4418 3.94961C12.4434 4.08378 12.4876 4.23878 12.5676 4.37461C12.7001 4.59961 12.9093 4.75795 13.1576 4.82295C13.4059 4.88461 13.6659 4.85128 13.8868 4.72045C14.9534 4.11128 16.3109 4.47628 16.9201 5.53461L17.4393 6.43378C17.4526 6.45795 17.4643 6.48128 17.4743 6.50545C18.0259 7.54795 17.6576 8.86045 16.6326 9.45961C16.4834 9.54545 16.3626 9.66545 16.2793 9.81045C16.1501 10.0346 16.1143 10.3013 16.1793 10.5463C16.2459 10.7963 16.4051 11.0038 16.6293 11.1321C17.1351 11.4229 17.5126 11.9129 17.6634 12.4788C17.8143 13.0438 17.7318 13.6571 17.4376 14.1629L16.8843 15.0846C16.2751 16.1313 14.9176 16.4938 13.8618 15.8838C13.7209 15.8029 13.5584 15.7588 13.3968 15.7546H13.3918C13.1509 15.7546 12.9034 15.8571 12.7234 16.0363C12.5409 16.2188 12.4409 16.4621 12.4426 16.7204C12.4368 17.9446 11.4409 18.9346 10.2226 18.9346H9.17844C7.95427 18.9346 6.95844 17.9396 6.95844 16.7154C6.95677 16.5646 6.91344 16.4079 6.8326 16.2721C6.70177 16.0438 6.4901 15.8804 6.24594 15.8154C6.00344 15.7504 5.7376 15.7863 5.51927 15.9129C4.99594 16.2046 4.3801 16.2754 3.81677 16.1171C3.25427 15.9579 2.76844 15.5713 2.48344 15.0588L1.9626 14.1613C1.35344 13.1046 1.71594 11.7504 2.77094 11.1404C3.0701 10.9679 3.25594 10.6463 3.25594 10.3013C3.25594 9.95628 3.0701 9.63378 2.77094 9.46128C1.7151 8.84795 1.35344 7.49045 1.96177 6.43378L2.52677 5.50628C3.1276 4.46128 4.48594 4.09295 5.5451 4.70128C5.68927 4.78711 5.84594 4.83045 6.0051 4.83211C6.52427 4.83211 6.95844 4.40378 6.96677 3.87711C6.96344 3.29628 7.1926 2.73878 7.6101 2.31795C8.02927 1.89795 8.58594 1.66711 9.17844 1.66711H10.2226ZM10.2226 2.91711H9.17844C8.9201 2.91711 8.67844 3.01795 8.49594 3.19961C8.31427 3.38211 8.2151 3.62461 8.21677 3.88295C8.19927 5.10128 7.20344 6.08211 5.9976 6.08211C5.61094 6.07795 5.23844 5.97378 4.9151 5.78045C4.46094 5.52211 3.8676 5.68128 3.60177 6.14378L3.0376 7.07128C2.77927 7.51961 2.9376 8.11211 3.3976 8.37961C4.0801 8.77461 4.50594 9.51128 4.50594 10.3013C4.50594 11.0913 4.0801 11.8271 3.39594 12.2229C2.93844 12.4879 2.7801 13.0771 3.0451 13.5354L3.57094 14.4421C3.70094 14.6763 3.91344 14.8454 4.15927 14.9146C4.40427 14.9829 4.67427 14.9538 4.89927 14.8288C5.2301 14.6346 5.6151 14.5338 6.00177 14.5338C6.1926 14.5338 6.38344 14.5579 6.5701 14.6079C7.13344 14.7596 7.6226 15.1363 7.9126 15.6421C8.10094 15.9596 8.2051 16.3304 8.20844 16.7088C8.20844 17.2504 8.64344 17.6846 9.17844 17.6846H10.2226C10.7551 17.6846 11.1901 17.2529 11.1926 16.7204C11.1893 16.1321 11.4193 15.5729 11.8401 15.1521C12.2551 14.7371 12.8351 14.4879 13.4151 14.5046C13.7951 14.5138 14.1609 14.6163 14.4834 14.7996C14.9476 15.0654 15.5401 14.9071 15.8084 14.4488L16.3618 13.5263C16.4851 13.3138 16.5209 13.0471 16.4551 12.8013C16.3901 12.5554 16.2268 12.3421 16.0068 12.2163C15.4918 11.9196 15.1243 11.4413 14.9718 10.8679C14.8209 10.3054 14.9034 9.69128 15.1976 9.18545C15.3893 8.85211 15.6701 8.57128 16.0068 8.37795C16.4584 8.11378 16.6168 7.52295 16.3543 7.06295C16.3434 7.04461 16.3334 7.02545 16.3251 7.00545L15.8368 6.15878C15.5709 5.69628 14.9793 5.53711 14.5151 5.80128C14.0134 6.09795 13.4168 6.18295 12.8434 6.03211C12.2709 5.88378 11.7909 5.52128 11.4918 5.00961C11.3001 4.68961 11.1959 4.31711 11.1926 3.93795C11.2001 3.65295 11.1001 3.39711 10.9184 3.20961C10.7376 3.02295 10.4834 2.91711 10.2226 2.91711ZM9.70419 7.47886C11.26 7.47886 12.5259 8.74553 12.5259 10.3014C12.5259 11.8572 11.26 13.1222 9.70419 13.1222C8.14835 13.1222 6.88252 11.8572 6.88252 10.3014C6.88252 8.74553 8.14835 7.47886 9.70419 7.47886ZM9.70419 8.72886C8.83752 8.72886 8.13252 9.4347 8.13252 10.3014C8.13252 11.168 8.83752 11.8722 9.70419 11.8722C10.5709 11.8722 11.2759 11.168 11.2759 10.3014C11.2759 9.4347 10.5709 8.72886 9.70419 8.72886Z" fill="#222222"/>
</svg>
