<svg width="18" height="14" viewBox="0 0 18 14" fill="none" xmlns="http://www.w3.org/2000/svg">
<path d="M17.3892 6.31478L16.1634 5.78431L15.1226 3.75889C14.8413 3.20431 14.2706 2.8587 13.6477 2.86272H11.8554V2.35637C11.8554 1.4401 11.124 0.692627 10.2077 0.692627H1.63986C0.723595 0.692627 0.000228999 1.44412 0.000228999 2.35637V10.1124C-0.0078084 10.671 0.438267 11.1292 0.996867 11.1372C1.00089 11.1372 1.0049 11.1372 1.01294 11.1372H1.22593C1.22593 11.1774 1.22191 11.1935 1.22191 11.2176C1.2179 12.3669 2.14622 13.3033 3.29556 13.3073C4.44491 13.3113 5.38127 12.383 5.38529 11.2337C5.38529 11.2256 5.38529 11.2216 5.38529 11.2136C5.38529 11.1854 5.38529 11.1734 5.38127 11.1332H12.3055C12.3055 11.1734 12.3055 11.1894 12.3055 11.2136C12.3015 12.3629 13.2298 13.2993 14.3791 13.3033C15.5285 13.3073 16.4648 12.379 16.4689 11.2296C16.4689 11.2216 16.4689 11.2176 16.4689 11.2095C16.4689 11.1814 16.4689 11.1694 16.4689 11.1292H16.9873C17.5459 11.1292 18 10.6751 18 10.1165C18 10.1124 18 10.1084 18 10.1004V7.24711C18.008 6.85328 17.7669 6.47954 17.3892 6.31478ZM3.30762 12.5076C2.60033 12.5076 2.02967 11.9369 2.02967 11.2296C2.02967 10.5223 2.60033 9.95169 3.30762 9.95169C4.01491 9.95169 4.58557 10.5223 4.58557 11.2296C4.58557 11.9329 4.01089 12.5076 3.30762 12.5076ZM11.0517 10.3415H5.19239C4.85482 9.60608 4.11538 9.1359 3.30762 9.13992C2.49584 9.1359 1.76042 9.60207 1.42285 10.3415H1.01294C0.888362 10.3415 0.803969 10.2451 0.803969 10.1205V8.05085H11.0517V10.3415ZM11.0517 2.36038V7.24711H0.803969V2.36038C0.803969 1.8902 1.16967 1.50038 1.63986 1.50038H10.2077C10.6779 1.5044 11.0557 1.8902 11.0517 2.35637V2.36038ZM11.8554 3.67048H13.6477C13.9652 3.66646 14.2626 3.83926 14.4113 4.12459L15.215 5.67982H11.8554V3.67048ZM14.3912 12.5076C13.6839 12.5076 13.1133 11.9369 13.1133 11.2296C13.1133 10.5223 13.6839 9.95169 14.3912 9.95169C15.0985 9.95169 15.6691 10.5223 15.6691 11.2296C15.6691 11.9329 15.0985 12.5076 14.3912 12.5076ZM17.2003 10.1205C17.2003 10.2451 17.1159 10.3415 16.9913 10.3415H16.276C15.7897 9.30066 14.5519 8.85057 13.5111 9.33683C13.069 9.54179 12.7114 9.89945 12.5064 10.3415H11.8554V6.48356H15.7937L17.0717 7.04618C17.152 7.08636 17.2043 7.17478 17.2003 7.26319V10.1205Z" fill="#777777"/>
</svg>
